<svg xmlns="http://www.w3.org/2000/svg" xmlns:xlink="http://www.w3.org/1999/xlink" width="150" zoomAndPan="magnify" viewBox="0 0 112.5 112.499997" height="150" preserveAspectRatio="xMidYMid meet" version="1.0"><defs><g/><clipPath id="ec811e8680"><path d="M 0 0 L 112.003906 0 L 112.003906 112.003906 L 0 112.003906 Z M 0 0 " clip-rule="nonzero"/></clipPath><clipPath id="87bdb2eb63"><path d="M 5.347656 2.058594 L 106.148438 2.058594 L 106.148438 110.324219 L 5.347656 110.324219 Z M 5.347656 2.058594 " clip-rule="nonzero"/></clipPath></defs><g clip-path="url(#ec811e8680)"><path fill="#ffffff" d="M 0 0 L 112.003906 0 L 112.003906 112.003906 L 0 112.003906 Z M 0 0 " fill-opacity="1" fill-rule="nonzero"/><path fill="#ffffff" d="M 0 0 L 112.003906 0 L 112.003906 112.003906 L 0 112.003906 Z M 0 0 " fill-opacity="1" fill-rule="nonzero"/></g><g clip-path="url(#87bdb2eb63)"><path fill="#000000" d="M 79.996094 42.203125 L 49.820312 76.710938 C 48.515625 78.207031 46.238281 78.363281 44.738281 77.058594 L 31.933594 65.917969 C 30.433594 64.613281 30.277344 62.34375 31.585938 60.847656 L 33.316406 58.871094 C 34.625 57.375 36.898438 57.222656 38.398438 58.527344 L 46.507812 65.578125 L 72.582031 35.757812 C 73.890625 34.261719 76.164062 34.109375 77.667969 35.410156 L 79.648438 37.132812 C 81.144531 38.4375 81.300781 40.707031 79.996094 42.203125 Z M 102.816406 27.132812 C 94.421875 24.382812 86.371094 20.910156 79.019531 16.90625 C 71.664062 12.902344 65.007812 8.363281 59.40625 3.492188 L 59.402344 3.492188 C 58.386719 2.609375 57.070312 2.210938 55.789062 2.34375 C 54.503906 2.210938 53.191406 2.609375 52.175781 3.492188 L 52.171875 3.492188 C 46.570312 8.363281 39.914062 12.902344 32.5625 16.90625 C 25.207031 20.910156 17.152344 24.382812 8.765625 27.132812 C 6.71875 27.800781 5.378906 29.746094 5.484375 31.886719 L 5.484375 31.945312 C 6.253906 47.753906 11.027344 63.25 19.292969 76.757812 C 23.425781 83.519531 28.398438 89.726562 34.050781 95.234375 C 39.710938 100.746094 46.054688 105.554688 52.925781 109.511719 C 53.804688 110.015625 54.808594 110.222656 55.789062 110.125 C 56.765625 110.222656 57.773438 110.015625 58.652344 109.511719 C 65.527344 105.554688 71.867188 100.746094 77.523438 95.234375 C 83.179688 89.726562 88.15625 83.519531 92.289062 76.757812 C 100.550781 63.25 105.324219 47.753906 106.09375 31.945312 L 106.09375 31.886719 C 106.199219 29.746094 104.859375 27.800781 102.816406 27.132812 " fill-opacity="1" fill-rule="nonzero"/></g><g fill="#000000" fill-opacity="1"><g transform="translate(47.151016, 26.18188)"><g><path d="M 1.390625 0 L 0.546875 0 L 0.546875 -4.265625 L 1.390625 -4.265625 Z M 1.390625 0 "/></g></g><g transform="translate(49.105221, 26.18188)"><g><path d="M 0.46875 0 L 0.46875 -3.21875 L 1.234375 -3.21875 L 1.234375 -2.78125 L 1.296875 -2.765625 C 1.398438 -2.941406 1.519531 -3.070312 1.65625 -3.15625 C 1.800781 -3.238281 1.984375 -3.28125 2.203125 -3.28125 C 2.453125 -3.28125 2.648438 -3.226562 2.796875 -3.125 C 2.941406 -3.03125 3.050781 -2.890625 3.125 -2.703125 L 3.171875 -2.703125 C 3.273438 -2.898438 3.40625 -3.046875 3.5625 -3.140625 C 3.71875 -3.234375 3.910156 -3.28125 4.140625 -3.28125 C 4.804688 -3.28125 5.140625 -2.90625 5.140625 -2.15625 L 5.140625 0 L 4.34375 0 L 4.34375 -2.0625 C 4.34375 -2.25 4.304688 -2.382812 4.234375 -2.46875 C 4.160156 -2.550781 4.039062 -2.59375 3.875 -2.59375 C 3.425781 -2.59375 3.203125 -2.296875 3.203125 -1.703125 L 3.203125 0 L 2.40625 0 L 2.40625 -2.0625 C 2.40625 -2.25 2.363281 -2.382812 2.28125 -2.46875 C 2.207031 -2.550781 2.09375 -2.59375 1.9375 -2.59375 C 1.726562 -2.59375 1.5625 -2.519531 1.4375 -2.375 C 1.320312 -2.238281 1.265625 -2.019531 1.265625 -1.71875 L 1.265625 0 Z M 0.46875 0 "/></g></g><g transform="translate(54.670331, 26.18188)"><g><path d="M 0.46875 0 L 0.46875 -3.21875 L 1.25 -3.21875 L 1.25 -2.734375 L 1.3125 -2.71875 C 1.382812 -2.90625 1.484375 -3.039062 1.609375 -3.125 C 1.734375 -3.207031 1.890625 -3.25 2.078125 -3.25 C 2.253906 -3.25 2.390625 -3.21875 2.484375 -3.15625 L 2.359375 -2.453125 L 2.296875 -2.4375 C 2.242188 -2.457031 2.191406 -2.472656 2.140625 -2.484375 C 2.085938 -2.492188 2.03125 -2.5 1.96875 -2.5 C 1.738281 -2.5 1.5625 -2.421875 1.4375 -2.265625 C 1.320312 -2.109375 1.265625 -1.851562 1.265625 -1.5 L 1.265625 0 Z M 0.46875 0 "/></g></g></g><g fill="#000000" fill-opacity="1"><g transform="translate(57.132046, 26.18188)"><g><path d="M 1.25 0.0625 C 1.039062 0.0625 0.859375 0.0234375 0.703125 -0.046875 C 0.554688 -0.128906 0.441406 -0.242188 0.359375 -0.390625 C 0.285156 -0.535156 0.25 -0.710938 0.25 -0.921875 C 0.25 -1.109375 0.285156 -1.265625 0.359375 -1.390625 C 0.441406 -1.523438 0.566406 -1.632812 0.734375 -1.71875 C 0.910156 -1.800781 1.140625 -1.863281 1.421875 -1.90625 C 1.609375 -1.9375 1.75 -1.96875 1.84375 -2 C 1.945312 -2.039062 2.015625 -2.082031 2.046875 -2.125 C 2.085938 -2.175781 2.109375 -2.238281 2.109375 -2.3125 C 2.109375 -2.414062 2.070312 -2.492188 2 -2.546875 C 1.925781 -2.597656 1.804688 -2.625 1.640625 -2.625 C 1.460938 -2.625 1.289062 -2.582031 1.125 -2.5 C 0.96875 -2.425781 0.832031 -2.320312 0.71875 -2.1875 L 0.65625 -2.1875 L 0.3125 -2.703125 C 0.476562 -2.878906 0.675781 -3.019531 0.90625 -3.125 C 1.144531 -3.226562 1.40625 -3.28125 1.6875 -3.28125 C 2.113281 -3.28125 2.421875 -3.1875 2.609375 -3 C 2.796875 -2.820312 2.890625 -2.566406 2.890625 -2.234375 L 2.890625 -0.84375 C 2.890625 -0.695312 2.953125 -0.625 3.078125 -0.625 C 3.128906 -0.625 3.175781 -0.632812 3.21875 -0.65625 L 3.265625 -0.640625 L 3.328125 -0.078125 C 3.285156 -0.046875 3.222656 -0.0195312 3.140625 0 C 3.054688 0.0078125 2.96875 0.015625 2.875 0.015625 C 2.6875 0.015625 2.535156 -0.0195312 2.421875 -0.09375 C 2.316406 -0.164062 2.238281 -0.28125 2.1875 -0.4375 L 2.140625 -0.4375 C 1.972656 -0.101562 1.675781 0.0625 1.25 0.0625 Z M 1.515625 -0.546875 C 1.703125 -0.546875 1.847656 -0.609375 1.953125 -0.734375 C 2.066406 -0.859375 2.125 -1.03125 2.125 -1.25 L 2.125 -1.578125 L 2.0625 -1.59375 C 2.019531 -1.550781 1.957031 -1.515625 1.875 -1.484375 C 1.800781 -1.460938 1.6875 -1.441406 1.53125 -1.421875 C 1.363281 -1.390625 1.238281 -1.335938 1.15625 -1.265625 C 1.082031 -1.191406 1.046875 -1.09375 1.046875 -0.96875 C 1.046875 -0.820312 1.085938 -0.710938 1.171875 -0.640625 C 1.253906 -0.578125 1.367188 -0.546875 1.515625 -0.546875 Z M 1.515625 -0.546875 "/></g></g><g transform="translate(60.524196, 26.18188)"><g><path d="M 0.46875 0 L 0.46875 -3.21875 L 1.234375 -3.21875 L 1.234375 -2.75 L 1.296875 -2.734375 C 1.492188 -3.097656 1.816406 -3.28125 2.265625 -3.28125 C 2.640625 -3.28125 2.914062 -3.175781 3.09375 -2.96875 C 3.269531 -2.769531 3.359375 -2.476562 3.359375 -2.09375 L 3.359375 0 L 2.546875 0 L 2.546875 -1.984375 C 2.546875 -2.203125 2.5 -2.359375 2.40625 -2.453125 C 2.320312 -2.546875 2.1875 -2.59375 2 -2.59375 C 1.769531 -2.59375 1.585938 -2.515625 1.453125 -2.359375 C 1.328125 -2.210938 1.265625 -1.984375 1.265625 -1.671875 L 1.265625 0 Z M 0.46875 0 "/></g></g></g></svg>